<svg width="320" height="83" viewBox="0 0 320 83" fill="none" xmlns="http://www.w3.org/2000/svg">
<g clip-path="url(#clip0_234_3463)">
<path fill-rule="evenodd" clip-rule="evenodd" d="M277.454 55.1C276.054 61.8 272.954 65.7 271.454 67.6C267.754 72.3 263.654 73.7 260.354 73.5C254.554 73.2 251.554 68.2 252.254 61.7C252.954 56.1 257.054 49.4 270.654 50.3C273.854 50.5 276.354 51.5 278.154 52.1L277.454 55.1ZM270.354 19.4C266.154 19.2 262.854 19.9 260.254 20.6C256.954 21.4 254.854 22.9 253.954 25.3C253.354 27.2 255.554 29.4 257.554 28.6C260.154 27.7 263.454 26.2 267.554 26.4C277.754 26.8 279.554 35.2 279.354 40.4C279.254 41.9 279.154 43.3 279.054 44.1C276.354 43.6 274.254 43.4 270.154 43.1C261.454 42.6 254.254 45.4 251.654 47.3C241.354 54.7 241.254 60.3 241.054 64.7C240.454 75.5 247.754 81 255.554 81.4C264.054 81.8 270.154 74.2 274.854 68.4C274.954 68.3 275.054 68 275.154 67.9C275.154 68.5 275.154 68 274.754 69.6C274.254 72 273.554 75.1 273.254 77.1C272.954 79.4 275.454 81.4 278.454 81.5C281.354 81.6 284.254 80.1 284.354 77.8C284.554 74.9 285.354 69.1 287.454 60.7L289.754 51.4C289.854 51.1 289.854 50.7 289.954 50.4C290.354 48.4 290.654 46.3 290.754 44.1C291.254 30.7 287.854 20.8 270.354 19.4Z" fill="white"/>
<path fill-rule="evenodd" clip-rule="evenodd" d="M26.8544 9C37.9544 8.6 46.4544 9.5 49.0544 9.3C54.6544 9 60.7544 0.1 57.7544 0C56.0544 0.1 48.3544 0.199999 45.2544 0.299999C44.2544 0.299999 40.2544 0.4 36.0544 0.4C31.1544 0.5 25.8544 0.5 24.2544 0.5H19.3544C16.8544 0.4 14.1544 0.3 12.9544 0.4C7.95438 0.7 2.45438 9.6 5.15438 9.7C6.15438 9.6 9.65438 9.5 12.6544 9.5C12.4544 12.5 11.8544 16.4 10.8544 21.8L8.65438 33.9C5.35438 34.8 1.95438 42.4 3.75438 42.5C4.25438 42.4 5.65438 42.4 7.15438 42.3L4.45438 57.3C2.85438 65.1 0.654377 74.7 0.154377 76.9C-0.645623 79.8 1.75438 82.4 5.25438 82.4H7.25438C11.1544 82.4 14.0544 79.9 14.5544 76.5C14.8544 74.7 15.1544 72 15.7544 68.5L16.3544 65.2L20.4544 42.5H30.7544C33.2544 42.6 37.5544 42.7 40.0544 42.6C43.5544 42.5 50.5544 33.3 47.4544 33.8C47.1544 33.8 42.0544 33.9 41.5544 33.9C40.7544 34 39.8544 34 38.7544 34.1C35.8544 34.2 33.2544 34.4 29.8544 34.4C28.1544 34.4 26.4544 34.4 24.0544 34.3C23.3544 34.3 22.6544 34.2 21.8544 34.2C22.1544 32.5 22.4544 31 22.7544 29.4C24.0544 22.2 25.3544 14.9 26.8544 9Z" fill="white"/>
<path fill-rule="evenodd" clip-rule="evenodd" d="M81.7542 43.7C76.1542 49 68.9542 53.3 62.2542 53.9C63.1542 47.7 65.3542 36.8 69.6542 31.8C74.2542 26.4 78.4542 25.6 80.4542 25.6C83.6542 25.6 86.5542 27.9 86.5542 32.8C86.6542 37.2 84.5542 41 81.7542 43.7ZM82.8542 19.2C75.4542 19.2 65.3542 22.3 57.8542 31.5C54.3542 36 48.5542 45.7 48.5542 57.5C48.7542 71.1 53.1542 81.1 71.1542 81.7C75.4542 81.7 78.5542 81.5 81.4542 80.6C84.9542 79.6 87.1542 77.2 87.5542 74.8C87.8542 72.8 85.7542 71.3 83.6542 72.3C81.0542 73.4 77.7542 74.5 73.5542 74.5C63.1542 74.6 61.5542 65.9 61.5542 60.6C61.5542 58.4 61.7542 56.8 61.8542 56.5C70.2542 56.2 77.4542 55.8 84.6542 52.2C88.2542 50.3 92.7542 47.3 95.4542 43.3C97.7542 39.8 99.1542 35.6 99.1542 32.3C99.1542 24.9 93.7542 19.2 82.8542 19.2Z" fill="white"/>
<path fill-rule="evenodd" clip-rule="evenodd" d="M183.254 18.8C182.154 18.8 174.254 18.9 172.754 18.9C171.654 18.9 170.754 19 169.754 19C170.654 14.2 171.554 11.3 172.254 7.8C173.754 -0.199993 174.554 1.1 166.554 3.9C159.154 6.5 160.354 4.7 159.254 11.3C158.854 13.7 158.754 16 158.154 18.9C153.954 18.7 155.054 18.5 151.054 22.5C145.654 28 145.854 27.1 156.854 27.1L149.754 62.7C149.254 65.8 148.754 68.1 148.754 70.2C148.754 72.6 149.354 74.5 151.054 76.7C152.654 78.9 156.854 81 163.554 81C164.454 81 165.754 81 166.454 80.9C169.854 80.5 172.454 78.2 172.754 75.5C172.954 73.7 171.154 72.2 168.854 72.5C167.954 72.6 167.154 72.8 166.154 72.8C163.154 72.8 160.954 71.1 160.954 66.8C160.954 63.6 161.854 58.7 162.954 53.1C163.754 49.3 164.854 42.9 165.954 37.4C166.854 33.4 167.554 30.2 168.154 27.3C169.654 27.3 173.154 27.4 175.254 27.4C182.254 27.4 180.054 28.3 185.654 22.7C190.154 18.2 190.954 18.8 183.254 18.8Z" fill="white"/>
<path fill-rule="evenodd" clip-rule="evenodd" d="M143.154 19.5C142.654 19.3 142.054 19.1 141.254 18.8H141.154C139.054 18.2 133.754 17.6 130.754 17.7C126.454 17.8 118.454 18.7 113.054 22.9C107.954 27 104.354 32.8 104.454 38.8C104.554 45.9 110.654 49.6 113.854 51.5L120.554 55.4C123.554 57.1 126.454 59.1 126.454 63.2C126.554 67.7 122.354 72.6 114.654 72.7C110.554 72.8 107.854 72 105.854 71.1C103.154 69.7 99.7543 70.6 98.7543 73.2C97.9543 76.2 100.054 79.4 103.354 80.3C105.354 80.7 108.354 81 111.254 81C115.954 80.9 123.554 80.5 129.854 75.7C136.254 70.8 138.454 64.4 138.354 59.7C138.254 53.1 133.254 50 130.054 48.1L124.554 44.8C120.654 42.7 116.954 40.5 116.854 35.5C116.754 31.1 120.854 25.7 128.354 25.6C130.654 25.6 133.754 25.9 135.454 26.3C140.554 27.4 139.054 28.4 141.554 25C144.754 20.4 145.654 20.5 143.154 19.5Z" fill="white"/>
<path fill-rule="evenodd" clip-rule="evenodd" d="M319.254 6.8C318.854 3.5 317.554 1.9 315.354 2.1C313.354 2.3 310.454 3.8 306.654 6.5L300.954 10.6C300.554 10.9 300.354 11.4 300.554 11.9C300.754 12.3 301.254 12.5 301.754 12.4L303.754 11.6C306.754 11.3 307.854 14.7 306.854 21.8C306.554 23.3 305.254 29.9 304.954 31.3C303.154 40.6 301.354 50.3 299.554 59.6C298.954 62.5 298.354 65.1 297.954 67.3C297.054 71.8 296.554 73.8 295.954 76.5C295.154 80.2 299.254 82.4 302.254 82.2C304.754 82 308.454 81.4 308.854 75.9C309.054 72.4 310.054 65.4 312.254 54C312.654 51.9 313.254 49.1 313.554 47.4V47.2L314.554 42.3L316.154 34.1C316.254 33.2 316.454 31.9 316.754 30.4C317.154 28.6 317.354 27.4 317.454 26.6L318.454 18.9C319.354 13.4 319.554 9.4 319.254 6.8Z" fill="white"/>
<path fill-rule="evenodd" clip-rule="evenodd" d="M240.954 19.7C236.854 19.7 233.354 22 232.254 25.4C231.254 28.9 228.054 35.7 225.554 41.4L211.754 70.1C209.754 59.3 209.154 55.5 207.654 43.7C207.654 43.5 207.654 43.3 207.554 43.1L206.654 35.1C206.154 29.5 205.354 25.4 204.354 22.9C203.054 19.6 201.254 18.4 198.954 19.1C196.754 19.8 193.954 22 190.554 25.6L185.354 31C184.954 31.4 184.854 32 185.254 32.4C185.554 32.8 186.254 32.9 186.754 32.6L188.754 31.3C191.954 30.2 193.254 33.7 194.854 40.8C195.054 41.8 196.054 47.9 196.154 48.5C197.154 54.4 198.154 60.8 199.154 66.7C199.554 69.5 200.054 72.4 200.354 75.2C200.754 78.6 204.254 81.1 208.354 81.1C212.554 81.1 216.654 79.1 218.254 76C219.154 74.1 220.054 72.1 221.754 68.7L224.954 62.2C233.254 45.2 233.854 44 239.154 34.5C240.754 31.6 243.554 26.9 244.954 24.6C246.254 22.4 243.954 19.7 240.954 19.7Z" fill="white"/>
</g>
<defs>
<clipPath id="clip0_234_3463">
<rect width="320" height="83" fill="white"/>
</clipPath>
</defs>
</svg>
